<?xml version="1.0" encoding="UTF-8"?>
<svg width="58.358mm" height="10.098mm" version="1.1" viewBox="0 0 206.78129 35.781249" xmlns="http://www.w3.org/2000/svg" xmlns:cc="http://creativecommons.org/ns#" xmlns:dc="http://purl.org/dc/elements/1.1/" xmlns:rdf="http://www.w3.org/1999/02/22-rdf-syntax-ns#">
<metadata>
<rdf:RDF>
<cc:Work rdf:about="">
<dc:format>image/svg+xml</dc:format>
<dc:type rdf:resource="http://purl.org/dc/dcmitype/StillImage"/>
<dc:title/>
</cc:Work>
</rdf:RDF>
</metadata>
<g transform="translate(-213.75 -480.19)">
<path d="m240.78 480.19-7.875 1.375v1.4688 6.9688 5.75h-11.25c0.0367-2.3363 0.023-4.8272 0.0312-7.0625v-8.4688l-7.9375 1.375v1.4375 7.0625 25.438h7.9062v-13.906h11.25v13.906h7.875v-26.938-5.5625zm59.25 0.53125-7.5938 1.3125v33.5h7.5938v-10.317c0.01 2e-3 0.0213-2e-3 0.0312 0 6.3529 10.431 0.11916 0.23496 6.3438 10.317h7.684l-7.8326-12.004 7.3023-12.112h-7.4036l-6.125 10.018v-4.433zm64.156 0-7.5938 1.3125v27.562c0 3.408 1.9278 6.125 6.3438 6.125 2.784 0 5.29-0.818 6.25-1.25l-0.71875-4.75c-0.72 0.144-1.6718 0.28125-2.3438 0.28125-1.44 0-1.9375-0.52651-1.9375-2.0625zm42.344 0-7.5938 1.3125v32.406c0.528 0.192 5.5785 1.375 9.5625 1.375 7.152 0 12.031-5.4228 12.031-12.719 0-7.248-2.952-12-9-12-2.16 0-3.8 0.87025-5 2.4062zm-62.406 1.875c-9.792 0-14.5 7.1578-14.5 17.094 0 10.272 4.3788 16.125 14.219 16.125 3.888 0 6.9695-0.7465 8.9375-1.5625l-1.75-5.375c-1.776 0.72-3.9628 1.3438-6.2188 1.3438-5.088 0-6.625-4.5345-6.625-11.062 0-6.816 1.8095-10.938 5.9375-10.938 1.68 0 3.3178 0.59 5.0938 2.75l4.3125-4.375c-1.824-2.064-4.2703-4-9.4062-4zm-61.625 8.375c-6.672 0-11.656 4.5475-11.656 13.188 0 7.056 3.2698 11.812 11.094 11.812 4.272 0 7.1082-1.577 7.1562-1.625l-1.4062-5.0625c-0.144 0.048-2.4952 0.96875-4.0312 0.96875-2.064 0-4.75-0.85826-4.75-6.9062 0-6.096 2.5098-6.7188 4.0938-6.7188 1.296 0 2.0132 0.71299 2.7812 1.625l3.7188-3.875c-1.488-2.016-3.88-3.4062-7-3.4062zm-25.75 0.125c-7.152 0-12.062 5.4373-12.062 12.781 0 7.2 2.962 11.938 9.25 11.938 3.456 0 5.5378-1.7115 6.5938-4.6875 0.576 3.168 2.3125 4.7812 2.3125 4.7812l6.0938-1.9062s-2.6562-2.4473-2.6562-10.031v-11.469c-0.096 0-5.5472-1.4062-9.5312-1.4062zm115.22 0.34375v16.031c0 5.088 1.8975 8.3438 6.9375 8.3438 3.36 0 6.4762-1.3365 8.1562-4.3125 0.672 2.88 2.25 4.4062 2.25 4.4062l6.0938-1.9062s-2.6562-2.4473-2.6562-10.031v-12.531h-7.5625v12c0 4.176-1.8802 6.7812-3.6562 6.7812-1.488 0-1.9062-1.494-1.9062-3.75v-15.031zm-115.22 5.2188c0.576 0 1.5368 0.21424 1.9688 0.40625v5.5625c0 4.032-1.5632 7.625-3.5312 7.625-2.304 0-2.4375-3.323-2.4375-6.875 0-3.888 0.88-6.7188 4-6.7188zm153.28 0c2.304 0 2.4375 3.3375 2.4375 6.9375 0 3.84-0.84875 6.6562-3.9688 6.6562-0.624 0-1.5848-0.24775-1.9688-0.34375v-5.125c0-4.272 1.436-8.125 3.5-8.125z" fill="#fff"/>
</g>
</svg>
