<svg viewBox="0 0 200 200" xmlns="http://www.w3.org/2000/svg" xmlns:xlink="http://www.w3.org/1999/xlink"><title>Venue BW</title><defs><path id="a" d="M30 111h15v25H30z"/><mask id="m" x="0" y="0" width="15" height="25" fill="#fff"><use xlink:href="#a"/></mask><path id="b" d="M55 111h15v25H55z"/><mask id="n" x="0" y="0" width="15" height="25" fill="#fff"><use xlink:href="#b"/></mask><path id="c" d="M80 111h15v25H80z"/><mask id="o" x="0" y="0" width="15" height="25" fill="#fff"><use xlink:href="#c"/></mask><path id="d" d="M105 111h15v25h-15z"/><mask id="p" x="0" y="0" width="15" height="25" fill="#fff"><use xlink:href="#d"/></mask><path id="e" d="M130 111h15v25h-15z"/><mask id="q" x="0" y="0" width="15" height="25" fill="#fff"><use xlink:href="#e"/></mask><path id="f" d="M155 111h15v25h-15z"/><mask id="r" x="0" y="0" width="15" height="25" fill="#fff"><use xlink:href="#f"/></mask><path id="g" d="M130 145h15v25h-15z"/><mask id="s" x="0" y="0" width="15" height="25" fill="#fff"><use xlink:href="#g"/></mask><path id="h" d="M155 145h15v25h-15z"/><mask id="t" x="0" y="0" width="15" height="25" fill="#fff"><use xlink:href="#h"/></mask><path id="i" d="M31 145h15v25H31z"/><mask id="u" x="0" y="0" width="15" height="25" fill="#fff"><use xlink:href="#i"/></mask><path id="j" d="M56 145h15v25H56z"/><mask id="v" x="0" y="0" width="15" height="25" fill="#fff"><use xlink:href="#j"/></mask><path id="k" d="M20 100h161v80H20z"/><mask id="w" x="0" y="0" width="161" height="80" fill="#fff"><use xlink:href="#k"/></mask><path id="l" d="M28.05 84h143.56l9.39 19H20z"/><mask id="x" x="0" y="0" width="161" height="19" fill="#fff"><use xlink:href="#l"/></mask></defs><g fill="none" fill-rule="evenodd"><use mask="url(#m)" stroke="#4A4A4A" stroke-width="6" xlink:href="#a"/><use mask="url(#n)" stroke="#4A4A4A" stroke-width="6" xlink:href="#b"/><use mask="url(#o)" stroke="#4A4A4A" stroke-width="6" xlink:href="#c"/><use mask="url(#p)" stroke="#4A4A4A" stroke-width="6" xlink:href="#d"/><use mask="url(#q)" stroke="#4A4A4A" stroke-width="6" xlink:href="#e"/><use mask="url(#r)" stroke="#4A4A4A" stroke-width="6" xlink:href="#f"/><use mask="url(#s)" stroke="#4A4A4A" stroke-width="6" xlink:href="#g"/><use mask="url(#t)" stroke="#4A4A4A" stroke-width="6" xlink:href="#h"/><use mask="url(#u)" stroke="#4A4A4A" stroke-width="6" xlink:href="#i"/><use mask="url(#v)" stroke="#4A4A4A" stroke-width="6" xlink:href="#j"/><use mask="url(#w)" stroke="#4A4A4A" stroke-width="6" xlink:href="#k"/><path fill="#4A4A4A" d="M80 143h18v37H80zm22 0h18v37h-18z"/><use mask="url(#x)" stroke="#4A4A4A" stroke-width="6" xlink:href="#l"/><path d="M69.012 92.224S80.22 45.697 80.59 45.002c.37-.697 1.853-1.403 1.853-1.403l-11.17 47.835-2.26.79z" stroke="#4A4A4A" stroke-width="3"/><path d="M115.264 35.362c26.506 5.956 46.917-15.69 47.125-15.982.207-.291-3.028 9.466-3.028 9.466s5.628-.091 9.95-2.243c4.324-2.152-14.423 27.391-38.11 32.4-12.569 3.064-24.124 2.15-33.212-.44-3.121-.735-13.28-3.637-21.179.564l4.418-20.237s7.527-9.48 34.036-3.527z" fill="#E42D40" stroke="#E42D40" stroke-width="3"/><path d="M87.717 41.326c-.037 1.45-.095 3.945-.63 7.2-1.27 5.302 2.141 3.901 2.792 1.697.432-1.258.852-2.56.852-2.56l3.367.69s-.04 1.483-.09 2.712c-.5 3.253 2.367 2.418 2.784-.025.19-1.244 1.043-6.423 1.115-9.126.425-1.806-2.193-2.92-2.831-.06-.412 1.111-.994 3.402-.994 3.402s-2.777-.561-2.818-.652c-.122-.27.079-.983-.034-1.641-.877-4.369-3.464-3.57-3.514-1.637zm14.162 1.717c.412-1.794 1.302-2.27 1.98-2.354.297-.036.825.44 1.264.973 1.88 3.585 1.68 10.965 1.505 11.493-.662 2.013-2.669 2.148-2.4.034.063-1.23.214-2.406.214-2.406l-2.55.285c-1.08 4.24-3.169 3.07-2.544 1.206.617-2.115 1.987-6.863 2.53-9.23zm.344 5.084l2.547-.17s-.305-4.501-.958-3.833l-1.589 4.003zm12.914-5.057c.103-1.006-1.021-2.895-3.35-1.981-3.462.83-3.276 7.109-3.276 7.109s.118 3.033 1.448 4.795c1.27 1.729 3.24 1.258 3.633 1.215 2.113-1.183.984-2.532.6-2.472-.489.075-1.148.32-1.765.024-1.099-.527-1.367-2.398-1.356-3.441.067-1.792.347-5.376 2.16-4.957 1.278.987 1.845.292 1.906-.293zm2.304.072c-.173 2.007 1.02 3.748.32 7.591-.174.957-.684 2.727-.754 2.982-.48 1.78 1.434 2.304 2.708-.889.295-.752.438-2.472.438-2.472l.802-.294s1.42 2.983 1.897 4.244c.477 1.26 2.944 1.45 2.385-1.119-.274-.832-.866-1.965-1.758-3.337 0 0-.641-.994-1.047-1.073 0 0 2.008-3.139 2.034-4.21.028-1.073-.623-1.709-2.254.456-1.63 2.165-1.733 2.765-1.733 2.765s.005-2.236-.44-3.818c-.228-1.667-2.413-2.443-2.598-.825zm10.753-.205c-.66 1.029-.845 2.723-.226 5.08.922 3.516 2.894 5.15 5.32 4.163 2.428-.987 1.428-2.638 1.205-2.662-.222-.025-.31-.19-1.242.438-.933.628-1.846.37-2.85-1.035-.677-.947-1.387-2.981-.87-4.272.136-.382.344-.561.444-.66.395-.379.932-.25 1.05-.17 1.531.64 1.57-.483.842-1.27-1.234-1.064-2.498-1.037-3.673.388zm6.063-.17c-.313-1.335.821-2.74 2.037.171 1.044 1.81 2.756 5.294 2.874 5.84 0 0 .897.213 2.995-.776 0 0 .98-.327.908.323-.072.651-.588.833-.707.916-.117.083-4.903 2.257-5.17 1.583-.267-.674-.16-1.044-.96-3.17-1.217-2.629-1.662-3.552-1.977-4.887zm5.963-2.117c-.333-.945.548-1.777 1.356-.877.635.709 1.985 4.12 3.043 5.418.54.494 1.4.4 1.632-.23.243-.964-.523-2.934-1.228-4.535-.39-.756-.589-1.361-.649-1.823-.192-1.53 1.143-1.482 2.057-.08.843 1.596 1.808 4.33 1.794 5.333-.015 1.003.009 2.23-1.165 2.827-.303.155-2.867 1.165-4.446-1.538-1.577-2.702-2.06-3.548-2.394-4.494zm7.174-5.156c1.42-1.343 2.549-1.977 3.618-1.857.655.193 1.206 1.07 1.26 1.894a7.535 7.535 0 0 1-.187 1.371c.985-.13 1.486.657 1.486.657 2.122 2.923.483 3.913-1.602 5.15-.688.363-1.51.555-1.591.3-.155-.48-3.416-6.086-3.416-6.086-.164-.28-.467-.65.432-1.429zm.914.92l1.243 1.733s1.832-1.249 1.345-2.28c-.484-1.03-1.595-.101-2.588.548zm1.904 3.098s1.092 2.227 1.058 2.093c-.032-.134 2.444-1.456 1.48-2.8-.963-1.343-2.538.707-2.538.707z" fill="#fff" stroke="#fff" stroke-width=".25"/></g></svg>