<?xml version="1.0" encoding="UTF-8"?>
<svg version="1.1" viewBox="0 0 200 200" xmlns="http://www.w3.org/2000/svg" xmlns:xlink="http://www.w3.org/1999/xlink">
<title>Venue BW</title>
<desc>Created with Sketch.</desc>
<defs>
<rect id="l" x="30" y="111" width="15" height="25"/>
<mask id="s" x="0" y="0" width="15" height="25" fill="white">
<use xlink:href="#l"/>
</mask>
<rect id="d" x="55" y="111" width="15" height="25"/>
<mask id="o" x="0" y="0" width="15" height="25" fill="white">
<use xlink:href="#d"/>
</mask>
<rect id="c" x="80" y="111" width="15" height="25"/>
<mask id="n" x="0" y="0" width="15" height="25" fill="white">
<use xlink:href="#c"/>
</mask>
<rect id="b" x="105" y="111" width="15" height="25"/>
<mask id="m" x="0" y="0" width="15" height="25" fill="white">
<use xlink:href="#b"/>
</mask>
<rect id="a" x="130" y="111" width="15" height="25"/>
<mask id="x" x="0" y="0" width="15" height="25" fill="white">
<use xlink:href="#a"/>
</mask>
<rect id="k" x="155" y="111" width="15" height="25"/>
<mask id="w" x="0" y="0" width="15" height="25" fill="white">
<use xlink:href="#k"/>
</mask>
<rect id="j" x="130" y="145" width="15" height="25"/>
<mask id="v" x="0" y="0" width="15" height="25" fill="white">
<use xlink:href="#j"/>
</mask>
<rect id="i" x="155" y="145" width="15" height="25"/>
<mask id="u" x="0" y="0" width="15" height="25" fill="white">
<use xlink:href="#i"/>
</mask>
<rect id="h" x="31" y="145" width="15" height="25"/>
<mask id="t" x="0" y="0" width="15" height="25" fill="white">
<use xlink:href="#h"/>
</mask>
<rect id="g" x="56" y="145" width="15" height="25"/>
<mask id="r" x="0" y="0" width="15" height="25" fill="white">
<use xlink:href="#g"/>
</mask>
<rect id="f" x="20" y="100" width="161" height="80"/>
<mask id="q" x="0" y="0" width="161" height="80" fill="white">
<use xlink:href="#f"/>
</mask>
<polygon id="e" points="28.05 84 171.61 84 181 103 20 103"/>
<mask id="p" x="0" y="0" width="161" height="19" fill="white">
<use xlink:href="#e"/>
</mask>
</defs>
<g fill="none" fill-rule="evenodd">
<use mask="url(#s)" stroke="#4A4A4A" stroke-width="6" xlink:href="#l"/>
<use mask="url(#o)" stroke="#4A4A4A" stroke-width="6" xlink:href="#d"/>
<use mask="url(#n)" stroke="#4A4A4A" stroke-width="6" xlink:href="#c"/>
<use mask="url(#m)" stroke="#4A4A4A" stroke-width="6" xlink:href="#b"/>
<use mask="url(#x)" stroke="#4A4A4A" stroke-width="6" xlink:href="#a"/>
<use mask="url(#w)" stroke="#4A4A4A" stroke-width="6" xlink:href="#k"/>
<use mask="url(#v)" stroke="#4A4A4A" stroke-width="6" xlink:href="#j"/>
<use mask="url(#u)" stroke="#4A4A4A" stroke-width="6" xlink:href="#i"/>
<use mask="url(#t)" stroke="#4A4A4A" stroke-width="6" xlink:href="#h"/>
<use mask="url(#r)" stroke="#4A4A4A" stroke-width="6" xlink:href="#g"/>
<use mask="url(#q)" stroke="#4A4A4A" stroke-width="6" xlink:href="#f"/>
<rect x="80" y="143" width="18" height="37" fill="#4A4A4A"/>
<rect x="102" y="143" width="18" height="37" fill="#4A4A4A"/>
<use mask="url(#p)" stroke="#4A4A4A" stroke-width="6" xlink:href="#e"/>
<g transform="translate(119.65 56.133) rotate(1) translate(-50 -37.5)">
<path d="m-4.2633e-14 74.469s10.394-46.715 10.752-47.417c0.3582-0.70262 1.8278-1.4351 1.8278-1.4351l-10.334 48.023-2.2451 0.82942z" stroke="#4A4A4A" stroke-width="3"/>
<path d="m45.252 16.809c26.606 5.4927 46.636-16.507 46.839-16.802 0.2022-0.29537-2.8626 9.517-2.8626 9.517s5.6259-0.18946 9.9095-2.4167c4.2855-2.2262-13.943 27.639-37.539 33.061-12.513 3.2824-24.082 2.5698-33.214 0.13923-3.1339-0.68025-13.341-3.4047-21.166 0.93335l4.0644-20.311s7.3603-9.6105 33.969-4.1198z" fill="#E42D40" stroke="#E42D40" stroke-width="3"/>
<path d="m17.813 23.253c-0.01093 1.4495-0.025834 3.9452-0.50427 7.2087-1.177 5.3241 2.2093 3.8642 2.8214 1.6489 0.41037-1.265 0.80732-2.5743 0.80732-2.5743l3.3783 0.63002s-0.013414 1.4843-0.042726 2.7135c-0.44216 3.2615 2.4091 2.3764 2.7836-0.073097 0.16892-1.2471 0.93103-6.44 0.95537-9.1436 0.39397-1.814-2.2436-2.8821-2.8318-0.011437-0.39248 1.1188-0.93451 3.4196-0.93451 3.4196s-2.7861-0.51317-2.8289-0.60268c-0.12669-0.26852 0.062102-0.98457-0.062102-1.6409-0.95339-4.3525-3.5264-3.5086-3.5418-1.5748z" fill="#fff" stroke="#fff" stroke-width=".25"/>
<path d="m32.003 24.722c0.38106-1.8006 1.2624-2.2929 1.9381-2.3878 0.2966-0.04177 0.83316 0.42615 1.2818 0.95026 1.9411 3.5519 1.8705 10.934 1.7056 11.465-0.62748 2.0243-2.6316 2.1949-2.3996 0.076578 0.041732-1.2322 0.1719-2.4102 0.1719-2.4102l-2.5442 0.33018c-1.006 4.2575-3.115 3.1243-2.5233 1.2496 0.58028-2.1253 1.867-6.896 2.3698-9.2733zm0.43322 5.0775l2.5432-0.21482s-0.38304-4.4952-1.0244-3.8155l-1.5188 4.0303z" fill="#fff" stroke="#fff" stroke-width=".25"/>
<path d="m45.26 24.517c0.085452-1.0069-1.0721-2.8756-3.3843-1.9219-3.4469 0.89158-3.1513 7.1655-3.1513 7.1655 0-4.972e-4 0.17041 3.0308 1.5312 4.7687 1.2992 1.7066 3.2611 1.2019 3.6536 1.1516 2.0921-1.2193 0.93997-2.5489 0.55643-2.4823-0.48688 0.084036-1.1422 0.34062-1.7642 0.055196-1.1074-0.5077-1.408-2.3739-1.4159-3.4172 0.035771-1.7921 0.25338-5.3808 2.0737-4.9935 1.2947 0.96418 1.8496 0.25957 1.9008-0.3262z" fill="#fff" stroke="#fff" stroke-width=".25"/>
<path d="m47.565 24.55c-0.13811 2.0094 1.0845 3.7294 0.4521 7.5842-0.15749 0.95921-0.63642 2.7379-0.7015 2.994-0.45011 1.7881 1.474 2.2794 2.6917-0.93584 0.28219-0.75683 0.39447-2.4788 0.39447-2.4788l0.79689-0.3088s1.4721 2.9577 1.9709 4.2103c0.4988 1.2516 2.9685 1.3983 2.3648-1.1601-0.28766-0.82694-0.90023-1.9492-1.8154-3.3063 0 0-0.65878-0.98258-1.0662-1.0542 0 0 1.953-3.1735 1.9609-4.2451 0.0089426-1.0726-0.65281-1.6971-2.2461 0.49577-1.5913 2.1934-1.6842 2.7951-1.6842 2.7951s-0.033783-2.2357-0.50675-3.8105c-0.25685-1.6628-2.4553-2.3998-2.6118-0.7797z" fill="#fff" stroke="#fff" stroke-width=".25"/>
<path d="m58.312 24.157c-0.64238 1.0398-0.79689 2.7374-0.13662 5.083 0.98319 3.4992 2.9829 5.0979 5.3924 4.0696 2.4095-1.0293 1.3806-2.6628 1.1571-2.6827-0.22158-0.020885-0.3125-0.18399-1.2336 0.45947-0.92209 0.64445-1.8397 0.40328-2.8676-0.98507-0.69355-0.93484-1.4388-2.9562-0.94544-4.2555 0.13017-0.38488 0.33485-0.56787 0.43372-0.66782 0.38752-0.38587 0.92706-0.26703 1.0463-0.18946 1.5421 0.61411 1.561-0.50919 0.82024-1.2844-1.2525-1.0413-2.5164-0.99253-3.6665 0.453z" fill="#fff" stroke="#fff" stroke-width=".25"/>
<path d="m64.372 23.881c-0.33684-1.3297 0.77255-2.7533 2.0389 0.13575 1.0761 1.7921 2.8487 5.2446 2.9759 5.7896 0 0 0.90023 0.19642 2.9804-0.82943 0 0 0.97475-0.3441 0.91364 0.3078-0.060114 0.6519-0.57332 0.84335-0.69057 0.92838-0.11576 0.084534-4.8628 2.3416-5.1415 1.6728-0.27871-0.66981-0.17736-1.0413-1.016-3.1521-1.2624-2.6081-1.723-3.5231-2.0608-4.8527z" fill="#fff" stroke="#fff" stroke-width=".25"/>
<path d="m70.297 21.661c-0.35025-0.93932 0.51619-1.7866 1.3399-0.90103 0.64735 0.69765 2.0573 4.0855 3.1374 5.3639 0.54799 0.48433 1.407 0.37593 1.6276-0.25857 0.22605-0.96816-0.57382-2.9239-1.3071-4.5126-0.40341-0.74887-0.61207-1.351-0.68014-1.8115-0.2191-1.5256 1.1168-1.5017 2.0553-0.11536 0.86992 1.5808 1.8829 4.2968 1.8864 5.3003 0.002484 1.003 0.047694 2.2287-1.1153 2.8473-0.30008 0.15962-2.8462 1.2148-4.4723-1.4609-1.6236-2.6742-2.1214-3.5116-2.4716-4.4514z" fill="#fff" stroke="#fff" stroke-width=".25"/>
<path d="m77.38 16.38c1.3956-1.3675 2.5134-2.0214 3.5845-1.9199 0.65878 0.1815 1.2246 1.0497 1.2937 1.8712-0.015898 0.73942-0.16345 1.3749-0.16345 1.3749 0.9822-0.14769 1.4974 0.63102 1.4974 0.63102 2.1726 2.8856 0.55047 3.9035-1.5128 5.1774-0.68113 0.37443-1.5004 0.5803-1.5853 0.3272-0.16296-0.47786-3.5214-6.0258-3.5214-6.0258-0.16892-0.27648-0.47843-0.64146 0.40739-1.4361zm0.92954 0.90451l1.2728 1.7106s1.8099-1.2809 1.3051-2.3033c-0.50228-1.0214-1.5963-0.073594-2.578 0.59273zm1.9579 3.0636s1.1303 2.2078 1.0945 2.0741c-0.034777-0.13376 2.418-1.4982 1.4313-2.8249-0.98717-1.3267-2.5258 0.75086-2.5258 0.75086z" fill="#fff" stroke="#fff" stroke-width=".25"/>
</g>
</g>
</svg>
