<svg width="220.566" height="38.166" viewBox="0 0 206.781 35.781" xmlns="http://www.w3.org/2000/svg"><path d="M27.03 0l-7.875 1.375v14.188H7.905c.037-2.337.023-4.828.031-7.063V.031L0 1.406v33.938h7.906V21.438h11.25v13.906h7.875v-32.5zm59.25.531l-7.594 1.313v33.5h7.594V25.027c.01.002.021-.002.031 0 6.353 10.43.12.235 6.344 10.317h7.684L92.506 23.34l7.303-12.112h-7.404L86.28 21.246v-4.433zm64.156 0l-7.594 1.313v27.562c0 3.408 1.928 6.125 6.344 6.125 2.784 0 5.29-.818 6.25-1.25l-.719-4.75c-.72.144-1.672.281-2.344.281-1.44 0-1.937-.527-1.937-2.063zm42.344 0l-7.594 1.313V34.25c.528.192 5.579 1.375 9.563 1.375 7.152 0 12.03-5.423 12.03-12.72 0-7.247-2.951-12-9-12-2.16 0-3.8.871-5 2.407zm-62.406 1.875c-9.792 0-14.5 7.158-14.5 17.094 0 10.272 4.379 16.125 14.219 16.125 3.888 0 6.97-.746 8.938-1.562l-1.75-5.375c-1.777.72-3.963 1.344-6.22 1.344-5.087 0-6.624-4.535-6.624-11.062 0-6.816 1.81-10.938 5.937-10.938 1.68 0 3.318.59 5.094 2.75l4.313-4.375c-1.825-2.064-4.27-4-9.407-4zm-61.625 8.375c-6.672 0-11.656 4.548-11.656 13.188 0 7.056 3.27 11.812 11.094 11.812 4.272 0 7.108-1.577 7.156-1.625l-1.406-5.062c-.144.048-2.495.968-4.031.968-2.064 0-4.75-.858-4.75-6.906 0-6.096 2.51-6.718 4.094-6.718 1.296 0 2.013.712 2.78 1.625l3.72-3.875c-1.488-2.017-3.88-3.407-7-3.407zm-25.75.125c-7.152 0-12.062 5.438-12.062 12.781 0 7.2 2.962 11.938 9.25 11.938 3.456 0 5.538-1.711 6.594-4.687.576 3.168 2.312 4.781 2.312 4.781l6.094-1.906s-2.656-2.448-2.656-10.031v-11.47c-.096 0-5.547-1.405-9.531-1.405zm115.22.344v16.031c0 5.088 1.897 8.344 6.938 8.344 3.36 0 6.476-1.337 8.156-4.313.672 2.88 2.25 4.406 2.25 4.406l6.094-1.906S179 31.365 179 23.782V11.25h-7.562v12c0 4.176-1.88 6.782-3.656 6.782-1.488 0-1.907-1.494-1.907-3.75V11.25zm-115.22 5.219c.576 0 1.537.214 1.969.406v5.563c0 4.032-1.563 7.625-3.531 7.625-2.304 0-2.438-3.323-2.438-6.875 0-3.888.88-6.72 4-6.72zm153.28 0c2.304 0 2.438 3.337 2.438 6.937 0 3.84-.85 6.657-3.97 6.657-.623 0-1.584-.248-1.968-.344v-5.125c0-4.272 1.436-8.125 3.5-8.125z" fill="#fff"/></svg>